<svg width="287" height="288" viewBox="0 0 287 288" fill="none" xmlns="http://www.w3.org/2000/svg">
<g clip-path="url(#clip0_27_6128)">
<path d="M2.01758 286.875L2.56957 286.321L2.2154 285.968L5.01932 283.154L5.37349 283.507L8.17741 280.694L7.82324 280.341L10.6272 277.527L10.9813 277.88L13.7852 275.066L13.4311 274.713L16.235 271.9L16.5891 272.252L19.3931 269.439L19.0389 269.086L21.8428 266.272L22.197 266.625L25.0009 263.811L24.6467 263.458L27.4506 260.645L27.8048 260.998L30.6087 258.184L30.2546 257.831L33.0585 255.017L33.4127 255.37L36.2166 252.556L35.8624 252.203L38.6663 249.39L39.0205 249.743L41.8244 246.929L41.4703 246.576L44.2742 243.762L44.6284 244.115L47.4323 241.301L47.0781 240.949L49.882 238.135L50.2362 238.488L53.0401 235.674L52.686 235.321L55.4899 232.507L55.844 232.86L58.648 230.047L58.2938 229.694L61.0977 226.88L61.4519 227.233L64.2558 224.419L63.9016 224.066L66.7056 221.252L67.0597 221.605L69.8636 218.792L69.5095 218.439L72.3134 215.625L72.6676 215.978L75.4715 213.164L75.1173 212.811L77.9212 209.998L78.2754 210.35L81.0793 207.537L80.7252 207.184L83.5291 204.37L83.8833 204.723L86.6872 201.909L86.333 201.556L89.1369 198.743L89.4911 199.096L92.295 196.282L91.9408 195.929L94.7448 193.115L95.0989 193.468L97.9028 190.654L97.5487 190.301L100.353 187.488L100.707 187.841L103.51 185.027L103.156 184.674L105.96 181.86L106.314 182.213L109.118 179.4L108.764 179.047L111.568 176.233L111.922 176.586L114.726 173.772L114.372 173.419L117.176 170.605L117.53 170.958L120.334 168.145L119.98 167.792L122.784 164.978L123.138 165.331L125.942 162.517L125.587 162.164L128.391 159.351L128.746 159.703L131.549 156.89L131.195 156.537L133.999 153.723L134.353 154.076L137.157 151.262L136.803 150.909L139.607 148.096L139.961 148.449L142.765 145.635L142.411 145.282L145.215 142.468L145.569 142.821L148.373 140.007L148.019 139.655L150.823 136.841L151.177 137.194L153.981 134.38L153.627 134.027L156.431 131.213L156.785 131.566L159.589 128.753L159.234 128.4L162.038 125.586L162.393 125.939L165.196 123.125L164.842 122.772L167.646 119.958L168 120.311L170.804 117.498L170.45 117.145L173.254 114.331L173.608 114.684L176.412 111.87L176.058 111.517L178.862 108.704L179.216 109.057L182.02 106.243L181.666 105.89L184.47 103.076L184.824 103.429L187.628 100.615L187.274 100.262L190.078 97.4486L190.432 97.8015L193.236 94.9878L192.881 94.6348L195.685 91.8211L196.04 92.1741L198.844 89.3603L198.489 89.0074L201.293 86.1937L201.647 86.5466L204.451 83.7329L204.097 83.3799L206.901 80.5662L207.255 80.9191L210.059 78.1054L209.705 77.7525L212.509 74.9387L212.863 75.2917L215.667 72.4779L215.313 72.125L218.117 69.3113L218.471 69.6642L221.275 66.8505L220.921 66.4975L223.725 63.6838L224.079 64.0367L226.883 61.223L226.529 60.8701L229.333 58.0563L229.687 58.4093L232.491 55.5956L232.136 55.2426L234.94 52.4289L235.295 52.7818L238.098 49.9681L237.744 49.6151L240.548 46.8014L240.902 47.1543L243.706 44.3406L243.352 43.9877L246.156 41.174L246.51 41.5269L249.314 38.7132L248.96 38.3602L251.764 35.5465L252.118 35.8994L254.922 33.0857L254.568 32.7328L257.372 29.919L257.726 30.272L260.53 27.4582L260.176 27.1053L262.98 24.2916L263.334 24.6445L266.138 21.8308L265.784 21.4778L268.588 18.6641L268.942 19.017L271.746 16.2033L271.391 15.8504L274.195 13.0366L274.55 13.3896L277.353 10.5758L276.999 10.2229L279.803 7.40917L280.157 7.76211L282.961 4.94837L282.607 4.59544L285.411 1.78171L285.765 2.13464L286.313 1.58496V2.36794H286.813V6.35405H286.313V10.3402H286.813V14.3263H286.313V18.3124H286.813V22.2985H286.313V26.2846H286.813V30.2707H286.313V34.2568H286.813V38.243H286.313V42.2291H286.813V46.2152H286.313V50.2013H286.813V54.1874H286.313V58.1735H286.813V62.1596H286.313V66.1457H286.813V70.1318H286.313V74.118H286.813V78.1041H286.313V82.0902H286.813V86.0763H286.313V90.0624H286.813V94.0485H286.313V98.0346H286.813V102.021H286.313V106.007H286.813V109.993H286.313V113.979H286.813V117.965H286.313V121.951H286.813V125.938H286.313V129.924H286.813V133.91H286.313V137.896H286.813V141.882H286.313V145.868H286.813V149.854H286.313V153.84H286.813V157.826H286.313V161.813H286.813V165.799H286.313V169.785H286.813V173.771H286.313V177.757H286.813V181.743H286.313V185.729H286.813V189.715H286.313V193.701H286.813V197.688H286.313V201.674H286.813V205.66H286.313V209.646H286.813V213.632H286.313V217.618H286.813V221.604H286.313V225.59H286.813V229.577H286.313V233.563H286.813V237.549H286.313V241.535H286.813V245.521H286.313V249.507H286.813V253.493H286.313V257.479H286.813V261.465H286.313V265.452H286.813V269.438H286.313V273.424H286.813V277.41H286.313V281.396H286.813V285.382H286.313V286.875H284.827V287.375H280.855V286.875H276.882V287.375H272.91V286.875H268.938V287.375H264.966V286.875H260.994V287.375H257.021V286.875H253.049V287.375H249.077V286.875H245.105V287.375H241.132V286.875H237.16V287.375H233.188V286.875H229.216V287.375H225.244V286.875H221.271V287.375H217.299V286.875H213.327V287.375H209.355V286.875H205.382V287.375H201.41V286.875H197.438V287.375H193.466V286.875H189.494V287.375H185.521V286.875H181.549V287.375H177.577V286.875H173.605V287.375H169.632V286.875H165.66V287.375H161.688V286.875H157.716V287.375H153.744V286.875H149.771V287.375H145.799V286.875H141.827V287.375H137.855V286.875H133.882V287.375H129.91V286.875H125.938V287.375H121.966V286.875H117.994V287.375H114.021V286.875H110.049V287.375H106.077V286.875H102.105V287.375H98.1328V286.875H94.1605V287.375H90.1883V286.875H86.2161V287.375H82.2439V286.875H78.2716V287.375H74.2994V286.875H70.3272V287.375H66.3549V286.875H62.3827V287.375H58.4105V286.875H54.4382V287.375H50.466V286.875H46.4938V287.375H42.5216V286.875H38.5493V287.375H34.5771V286.875H30.6049V287.375H26.6326V286.875H22.6604V287.375H18.6882V286.875H14.716V287.375H10.7438V286.875H6.77155V287.375H2.7993V286.875H2.01758Z" stroke="#353535" stroke-dasharray="4 4"/>
</g>
<defs>
<clipPath id="clip0_27_6128">
<rect width="286" height="287" fill="white" transform="translate(0.8125 0.375)"/>
</clipPath>
</defs>
</svg>
