<svg width="1440" height="402" viewBox="0 0 1440 402" fill="none" xmlns="http://www.w3.org/2000/svg">
<path d="M199.593 2.11328H0.429688V201.276H199.593V2.11328Z" stroke="#353535" stroke-width="0.833319"/>
<path d="M799.583 201.276H600.42V400.439H799.583V201.276Z" stroke="#353535" stroke-width="0.833319"/>
<path d="M999.579 1.27979H800.416V200.443H999.579V1.27979Z" stroke="#353535" stroke-width="0.833319"/>
<path d="M399.589 201.276H201.846L399.589 2.70557V201.276Z" stroke="#353535" stroke-width="0.833319"/>
<path d="M600.42 201.276H799.824L600.42 2.69971V201.276Z" stroke="#353535" stroke-width="0.833319"/>
<path d="M1399.57 200.443H1200.17L1399.57 399.019V200.443Z" stroke="#353535" stroke-width="0.833319"/>
<path d="M1199.58 100.861V200.443H1000.41V100.861C1000.41 45.864 1044.99 1.27979 1099.99 1.27979C1154.99 1.27979 1199.58 45.864 1199.58 100.861Z" stroke="#353535" stroke-width="0.833319"/>
<path d="M566.669 2.11328H599.585V201.276H400.422V168.36C400.422 76.5445 474.853 2.11328 566.669 2.11328Z" stroke="#353535" stroke-width="0.833319"/>
<path d="M1166.66 202.109H1199.58V401.273H1000.41V368.356C1000.41 276.541 1074.84 202.109 1166.66 202.109Z" stroke="#353535" stroke-width="0.833319"/>
<path d="M599.585 367.523V400.439H400.422V201.276H433.338C525.154 201.276 599.585 275.708 599.585 367.523Z" stroke="#353535" stroke-width="0.833319"/>
<path d="M1200.72 200.443L1316.18 1.79639L1399.36 200.443H1200.72Z" stroke="#353535" stroke-width="0.833319"/>
<path d="M1599.57 1.27979H1400.4V200.443H1599.57V1.27979Z" stroke="#353535" stroke-width="0.833319"/>
</svg>
